<?xml version="1.0" encoding="utf-8"?>
<!-- Generator: Adobe Illustrator 27.0.0, SVG Export Plug-In . SVG Version: 6.00 Build 0)  -->
<svg version="1.1" id="Laag_1" xmlns="http://www.w3.org/2000/svg" xmlns:xlink="http://www.w3.org/1999/xlink" x="0px" y="0px"
	 viewBox="0 0 200 100" style="enable-background:new 0 0 200 100;" xml:space="preserve">
<style type="text/css">
	.st0{fill:#232223;}
</style>
<g transform="translate(-326.518 -141.68)">
	<path class="st0" d="M457.6,177.7c-7.9,0-13.8,6.4-13.8,15s5.9,15,13.8,15c3.9,0,6.7-1.6,8.5-3.9v3.1h7.5v-42.3H466v16.8
		C464.1,179.2,461.4,177.7,457.6,177.7z M357.9,177.7c-7.9,0-13.8,6.4-13.8,15s5.9,15,13.8,15c3.8,0,6.5-1.5,8.4-3.7v14.7h7.6v-40.3
		h-7.5v3.1C364.6,179.3,361.9,177.7,357.9,177.7L357.9,177.7z M439.6,178.5h-7.5v3.1c-1.9-2.3-4.6-3.9-8.5-3.9
		c-7.9,0-13.8,6.4-13.8,15s5.9,15,13.8,15c3.9,0,6.7-1.6,8.5-3.9v3.1h7.5L439.6,178.5z M405.5,178.5h-7.6v15.7
		c0,4.6-2.5,6.4-5.8,6.4c-3.3,0-5.8-1.9-5.8-6.4v-15.7h-7.7v16.3c0,9,6.4,12.9,13.5,12.9c7.1,0,13.5-3.9,13.5-12.9L405.5,178.5z
		 M359.4,184.9c4.4,0,7.4,3.4,7.4,7.9s-3,7.9-7.4,7.9c-4.5,0-7.4-3.5-7.4-7.9S354.9,184.9,359.4,184.9z M425,184.9
		c4.4,0,7.4,3.4,7.4,7.9s-3,7.9-7.4,7.9c-4.5,0-7.4-3.5-7.4-7.9S420.5,184.9,425,184.9z M459,184.9c4.4,0,7.4,3.4,7.4,7.9
		s-3,7.9-7.4,7.9c-4.5,0-7.4-3.5-7.4-7.9S454.5,184.9,459,184.9L459,184.9z"/>
	<path class="st0" d="M484.6,218.7h9.6l10.8-16.2c2.5-3.7,3.9-7.2,3.9-10.9c0-8-6.7-13.9-15.5-13.9c-8.8,0-15.5,6-15.5,14
		c0,7.7,5.9,13.7,14.3,13.7c0.6,0,1.2,0,1.9-0.1L484.6,218.7z M493.4,198.4c-4.1,0-7.2-2.8-7.2-6.8c0-4,3.1-6.8,7.2-6.8
		c4.1,0,7.2,2.8,7.2,6.8C500.6,195.6,497.5,198.4,493.4,198.4z"/>
</g>
</svg>
