<svg xmlns="http://www.w3.org/2000/svg" width="1347.412" height="442.52" viewBox="0 0 1347.412 442.52"><g transform="translate(-326.518 -141.68)"><path d="M946.608-239.3c-64.214,0-112.794,52.67-112.794,122.655S882.395,6.013,946.608,6.013c31.987,0,54.594-12.987,69.745-31.746V0h61.327V-346.32h-62.53v137.566C1000-227.032,977.873-239.3,946.608-239.3Zm-815.3,0c-64.214,0-112.795,52.67-112.795,122.655S67.1,6.013,131.313,6.013c31.265,0,53.391-12.266,68.543-30.3V96.2h62.53V-233.045H201.058v25.734C185.666-226.311,163.3-239.3,131.313-239.3Zm667.628,6.253H737.614v25.734c-15.392-19-37.758-31.987-69.745-31.987-64.214,0-112.794,52.67-112.794,122.655S603.655,6.013,667.869,6.013c31.987,0,54.594-12.987,69.745-31.746V0h61.328Zm-278.74,0h-62.53v128.187c0,37.277-20.683,52.429-47.619,52.429-27.176,0-47.619-15.152-47.619-52.429V-233.045H299.663V-99.327c0,73.593,51.948,105.339,110.389,105.339,58.2,0,110.149-31.746,110.149-105.339ZM142.857-180.856c35.835,0,60.125,27.417,60.125,64.214s-24.29,64.214-60.125,64.214c-36.8,0-60.125-28.619-60.125-64.214S106.061-180.856,142.857-180.856Zm536.556,0c35.835,0,60.125,27.417,60.125,64.214s-24.29,64.214-60.125,64.214c-36.8,0-60.125-28.619-60.125-64.214S642.616-180.856,679.413-180.856Zm278.74,0c35.835,0,60.125,27.417,60.125,64.214s-24.29,64.214-60.125,64.214c-36.8,0-60.125-28.619-60.125-64.214S921.356-180.856,958.152-180.856Z" transform="translate(308 488)" fill="#231f20"/><path d="M56.037,96.2h78.4l88.5-132.516C243.386-66.859,254.93-95,254.93-125.782c0-65.175-54.593-113.516-126.5-113.516-72.39,0-126.5,48.822-126.5,114.719,0,63.011,48.34,111.833,116.643,111.833a96.328,96.328,0,0,0,15.152-.962Zm72.39-165.945c-33.91,0-58.923-22.848-58.923-55.315,0-32.708,25.012-55.315,58.923-55.315,33.67,0,58.923,22.607,58.923,55.315C187.35-92.593,162.1-69.745,128.427-69.745Z" transform="translate(1419 488)" fill="#dc205e"/></g></svg>