<svg xmlns="http://www.w3.org/2000/svg" xmlns:xlink="http://www.w3.org/1999/xlink" width="2048" height="2048" viewBox="0 0 2048 2048"><defs><clipPath id="b"><rect width="2048" height="2048"/></clipPath></defs><g id="a" clip-path="url(#b)"><rect width="2048" height="2048" fill="rgba(255,255,255,0)"/><g transform="translate(-1169 -249)"><path d="M332.295,1809h478.67L1351.3,999.959c124.807-186.476,195.286-358.269,195.286-546.213,0-397.913-333.307-693.044-772.333-693.044C332.295-239.3,1.924,58.77,1.924,461.088c0,384.7,295.131,682.766,712.132,682.766,35.24,0,64.606-1.468,92.5-5.873ZM774.257,795.864c-207.032,0-359.737-139.49-359.737-337.712,0-199.691,152.7-337.712,359.737-337.712,205.564,0,359.737,138.022,359.737,337.712C1133.994,656.374,979.821,795.864,774.257,795.864Z" transform="translate(1419 488)" fill="#dc205e"/></g></g></svg>